<svg width="389" height="128" viewBox="0 0 389 128" fill="none" xmlns="http://www.w3.org/2000/svg">
<g clip-path="url(#clip0_55_122)">
<path d="M15.7448 68.5C15.7448 67.5469 15.651 66.6042 15.4687 65.6719C15.2812 64.7396 15.0052 63.8333 14.6406 62.9531C14.276 62.0729 13.8333 61.2396 13.3021 60.4479C12.776 59.6563 12.1719 58.9219 11.5 58.25C10.8281 57.5781 10.0937 56.9792 9.30207 56.4479C8.51041 55.9219 7.67708 55.474 6.79687 55.1094C5.91666 54.7448 5.01041 54.4688 4.07812 54.2813C3.14583 54.099 2.20312 54.0052 1.24999 54.0052V82.9948C2.20312 82.9948 3.14583 82.901 4.07812 82.7188C5.01041 82.5313 5.91666 82.2552 6.79687 81.8906C7.67708 81.526 8.51041 81.0833 9.30207 80.5521C10.0937 80.0261 10.8281 79.4219 11.5 78.75C12.1719 78.0781 12.776 77.3438 13.3021 76.5521C13.8333 75.7604 14.276 74.9271 14.6406 74.0469C15.0052 73.1667 15.2812 72.2604 15.4687 71.3281C15.651 70.3958 15.7448 69.4531 15.7448 68.5Z" fill="#D0A933"/>
<path d="M88.9286 120.729C82.4391 120.729 76.0016 119.636 69.6161 117.459C63.2411 115.282 57.413 111.938 52.137 107.438C46.8714 102.927 42.663 97.2242 39.512 90.3336C36.3714 83.4482 34.8036 75.2868 34.8036 65.8545C34.8036 55.4274 37.0797 46.1357 41.637 37.9795C46.2047 29.8128 52.538 23.3753 60.637 18.667C68.7464 13.9482 78.1786 11.5836 88.9286 11.5836C95.3036 11.5836 101.684 12.7034 108.074 14.9378C114.46 17.1617 120.262 20.5315 125.47 25.042C130.689 29.5576 134.871 35.2607 138.012 42.1461C141.163 49.0368 142.741 57.1409 142.741 66.4586C142.741 75.8909 141.163 84.0003 138.012 90.792C134.871 97.5732 130.663 103.198 125.387 107.667C120.121 112.125 114.324 115.417 107.991 117.542C101.658 119.667 95.3036 120.729 88.9286 120.729ZM46.9703 57.042C47.2724 64.6409 48.663 72.0159 51.137 79.167C53.6214 86.3076 57.0172 92.719 61.3245 98.3961C65.6422 104.063 70.6839 108.573 76.4495 111.917C82.2255 115.266 88.512 116.938 95.3036 116.938C103.413 116.938 110.147 115.167 115.512 111.625C120.887 108.073 124.866 103.229 127.449 97.1045C130.033 90.969 131.168 84.0993 130.866 76.5003C130.574 68.5993 129.184 60.9742 126.699 53.6253C124.21 46.2815 120.835 39.719 116.574 33.9378C112.324 28.1617 107.309 23.5784 101.533 20.1878C95.7516 16.7867 89.4755 15.0836 82.6995 15.0836C74.9911 15.0836 68.4182 16.8649 62.9911 20.417C57.5745 23.9586 53.4703 28.8753 50.6786 35.167C47.8974 41.4482 46.663 48.7399 46.9703 57.042Z" fill="#D0A933"/>
<path d="M235.608 120.271C231.76 120.271 228.718 119.334 226.483 117.459C224.244 115.584 222.296 112.849 220.629 109.25C218.963 105.657 217.009 101.224 214.775 95.9586C212.551 90.6826 210.676 86.0732 209.15 82.1253C207.634 78.167 205.989 74.8753 204.213 72.2503C202.431 69.6149 200.176 67.6357 197.442 66.3128C194.702 64.9951 191.056 64.3336 186.504 64.3336H176.775V99.8961C176.775 106.078 177.202 110.334 178.067 112.667C178.926 115 180.525 116.521 182.858 117.229V119.209H158.233V117.229C160.567 116.521 162.161 115 163.025 112.667C163.885 110.334 164.317 106.078 164.317 99.8961V32.1045C164.317 25.8284 163.885 21.5524 163.025 19.2711C162.161 16.9951 160.567 15.5003 158.233 14.792V12.8128H188.171C198.515 12.8128 206.572 13.8545 212.338 15.9378C218.114 18.0107 222.192 20.8232 224.567 24.3753C226.952 27.917 228.15 31.969 228.15 36.5211C228.15 43.6201 225.614 49.6774 220.546 54.6878C215.489 59.7034 207.994 62.7659 198.067 63.8753C202.718 64.4899 206.51 65.5316 209.442 67.0003C212.385 68.4743 214.822 70.4534 216.754 72.9378C218.681 75.4118 220.405 78.4274 221.921 81.9795C223.447 85.5211 225.119 89.6201 226.942 94.2711C229.369 100.354 231.421 105.073 233.088 108.417C234.765 111.766 236.317 114.125 237.733 115.5C239.15 116.865 240.718 117.542 242.442 117.542C242.952 117.542 243.385 117.542 243.733 117.542C244.093 117.542 244.473 117.49 244.879 117.375V119.209C243.765 119.61 242.322 119.886 240.546 120.042C238.765 120.193 237.119 120.271 235.608 120.271ZM176.775 62.0628H189.546C198.265 62.0628 204.723 60.0159 208.921 55.917C213.129 51.8076 215.233 46.5107 215.233 40.0211C215.233 35.4534 214.192 31.3024 212.108 27.5628C210.036 23.8128 206.697 20.8024 202.088 18.5211C197.473 16.2295 191.421 15.0836 183.921 15.0836C182.806 15.0836 181.64 15.1149 180.421 15.167C179.213 15.2243 177.994 15.3024 176.775 15.3961V62.0628Z" fill="#D0A933"/>
<path d="M330.588 15.1543C336.271 18.2793 341.38 22.3418 345.922 27.3418C350.463 32.3314 353.953 38.0658 356.38 44.5501C358.812 51.0345 359.75 58.0553 359.193 65.6126C358.625 73.1647 356.062 81.0762 351.505 89.3418C346.463 98.4772 339.979 105.519 332.047 110.467C324.12 115.41 315.463 117.988 306.088 118.196C296.713 118.415 287.318 115.93 277.901 110.738C272.318 107.654 267.271 103.592 262.755 98.5501C258.229 93.5189 254.771 87.7689 252.38 81.3001C249.995 74.8418 249.088 67.8314 249.672 60.2793C250.245 52.722 252.776 44.8626 257.276 36.696C261.833 28.446 267.125 22.1126 273.151 17.696C279.167 13.2689 285.562 10.3731 292.338 9.00847C299.12 7.63347 305.792 7.54492 312.359 8.73763C318.932 9.93554 325.005 12.071 330.588 15.1543ZM336.609 91.1751C340 84.3835 342.333 77.2585 343.609 69.8001C344.891 62.3418 345.016 55.0814 343.984 48.0293C342.943 40.9876 340.703 34.6074 337.255 28.8835C333.812 23.1647 329.12 18.6647 323.172 15.3835C316.062 11.4668 309.307 9.77408 302.901 10.3001C296.484 10.8158 290.672 13.1335 285.463 17.2585C280.245 21.3835 275.922 26.8418 272.505 33.6335C268.953 40.7064 266.495 48.0501 265.13 55.6751C263.755 63.3105 263.542 70.6856 264.484 77.8001C265.432 84.9251 267.609 91.3679 271.026 97.1335C274.432 102.894 279.104 107.41 285.047 110.675C291.797 114.394 298.411 116.014 304.88 115.529C311.338 115.04 317.307 112.717 322.776 108.55C328.25 104.394 332.859 98.6022 336.609 91.1751Z" fill="#D0A933"/>
<path d="M374.302 68.5C374.302 67.5469 374.396 66.6042 374.583 65.6719C374.766 64.7396 375.042 63.8333 375.406 62.9531C375.771 62.0729 376.219 61.2396 376.745 60.4479C377.276 59.6563 377.875 58.9219 378.552 58.25C379.224 57.5781 379.953 56.9792 380.745 56.4479C381.536 55.9219 382.375 55.474 383.25 55.1094C384.13 54.7448 385.036 54.4688 385.974 54.2813C386.906 54.099 387.849 54.0052 388.797 54.0052V82.9948C387.849 82.9948 386.906 82.901 385.974 82.7188C385.036 82.5313 384.13 82.2552 383.25 81.8906C382.375 81.526 381.536 81.0833 380.745 80.5521C379.953 80.0261 379.224 79.4219 378.552 78.75C377.875 78.0781 377.276 77.3438 376.745 76.5521C376.219 75.7604 375.771 74.9271 375.406 74.0469C375.042 73.1667 374.766 72.2604 374.583 71.3281C374.396 70.3958 374.302 69.4531 374.302 68.5Z" fill="#D0A933"/>
</g>
<defs>
<clipPath id="clip0_55_122">
<rect width="389" height="128" fill="white"/>
</clipPath>
</defs>
</svg>
